HIERARCHY
ROOT hips
{
	OFFSET 0.000000 104.274902 0.000000
	CHANNELS 6 Xposition Yposition Zposition Xrotation Yrotation Zrotation
	JOINT spine
	{
		OFFSET 0.000000 10.181549 0.131524
		CHANNELS 6 Xposition Yposition Zposition Xrotation Yrotation Zrotation
		JOINT chest
		{
			OFFSET 0.000000 9.893990 -1.470706
			CHANNELS 3 Xrotation Yrotation Zrotation
			JOINT upperChest
			{
				OFFSET 0.000000 9.220787 -1.370637
				CHANNELS 3 Xrotation Yrotation Zrotation
				JOINT neck
				{
					OFFSET 0.000000 16.740372 -2.049022
					CHANNELS 6 Xposition Yposition Zposition Xrotation Yrotation Zrotation
					JOINT head
					{
						OFFSET 0.000000 9.617859 1.684976
						CHANNELS 6 Xposition Yposition Zposition Xrotation Yrotation Zrotation
						JOINT headEnd
						{
							OFFSET 0.000000 22.037384 7.501072
							CHANNELS 6 Xposition Yposition Zposition Xrotation Yrotation Zrotation
							End Site
							{
								OFFSET 0.000000 23.106567 -2.828246
							}
						}
					}
				}
				JOINT rightShoulder
				{
					OFFSET -4.570000 11.014877 -2.160840
					CHANNELS 6 Xposition Yposition Zposition Xrotation Yrotation Zrotation
					JOINT rightUpperArm
					{
						OFFSET -10.592867 -0.524796 -2.232105
						CHANNELS 3 Xrotation Yrotation Zrotation
						JOINT rightLowerArm
						{
							OFFSET -27.841497 0.000000 -0.000002
							CHANNELS 3 Xrotation Yrotation Zrotation
							JOINT rightHand
							{
								OFFSET -28.328812 0.000000 -0.000001
								CHANNELS 3 Xrotation Yrotation Zrotation
								JOINT rightThumbProximal
								{
									OFFSET -2.464798 -1.573990 2.681911
									CHANNELS 6 Xposition Yposition Zposition Xrotation Yrotation Zrotation
									JOINT rightThumbIntermediate
									{
										OFFSET -3.244781 -1.873383 1.873376
										CHANNELS 3 Xrotation Yrotation Zrotation
										JOINT rightThumbDistal
										{
											OFFSET -2.646263 -1.527817 1.527818
											CHANNELS 6 Xposition Yposition Zposition Xrotation Yrotation Zrotation
											JOINT rightHandThumb4
											{
												OFFSET -1.994591 -1.151581 1.151575
												CHANNELS 6 Xposition Yposition Zposition Xrotation Yrotation Zrotation
												End Site
												{
													OFFSET -1.860176 -1.142715 1.365483
												}
											}
										}
									}
								}
								JOINT rightIndexProximal
								{
									OFFSET -9.108299 -0.517883 2.259803
									CHANNELS 6 Xposition Yposition Zposition Xrotation Yrotation Zrotation
									JOINT rightIndexIntermediate
									{
										OFFSET -3.699997 0.000000 0.000000
										CHANNELS 3 Xrotation Yrotation Zrotation
										JOINT rightIndexDistal
										{
											OFFSET -2.850006 0.000000 0.000000
											CHANNELS 3 Xrotation Yrotation Zrotation
											JOINT rightHandIndex4
											{
												OFFSET -2.772194 0.000000 0.000000
												CHANNELS 3 Xrotation Yrotation Zrotation
												End Site
												{
													OFFSET -2.772202 0.000000 -0.000484
												}
											}
										}
									}
								}
								JOINT rightMiddleProximal
								{
									OFFSET -9.532501 0.000000 -0.000000
									CHANNELS 6 Xposition Yposition Zposition Xrotation Yrotation Zrotation
									JOINT rightMiddleIntermediate
									{
										OFFSET -3.699997 0.000000 0.000000
										CHANNELS 3 Xrotation Yrotation Zrotation
										JOINT rightMiddleDistal
										{
											OFFSET -2.949997 0.000000 0.000000
											CHANNELS 3 Xrotation Yrotation Zrotation
											JOINT rightHandMiddle4
											{
												OFFSET -2.946594 0.000000 0.000000
												CHANNELS 3 Xrotation Yrotation Zrotation
												End Site
												{
													OFFSET -2.946602 0.000000 -0.000982
												}
											}
										}
									}
								}
								JOINT rightRingProximal
								{
									OFFSET -9.103600 -0.043106 -1.865100
									CHANNELS 6 Xposition Yposition Zposition Xrotation Yrotation Zrotation
									JOINT rightRingIntermediate
									{
										OFFSET -3.379303 0.000000 0.000000
										CHANNELS 3 Xrotation Yrotation Zrotation
										JOINT rightRingDistal
										{
											OFFSET -2.889694 0.000000 0.000000
											CHANNELS 3 Xrotation Yrotation Zrotation
											JOINT rightHandRing4
											{
												OFFSET -2.638802 0.000000 0.000000
												CHANNELS 3 Xrotation Yrotation Zrotation
												End Site
												{
													OFFSET -2.638802 0.000000 0.004218
												}
											}
										}
									}
								}
								JOINT rightLittleProximal
								{
									OFFSET -8.076698 -0.486725 -3.806299
									CHANNELS 6 Xposition Yposition Zposition Xrotation Yrotation Zrotation
									JOINT rightLittleIntermediate
									{
										OFFSET -3.600006 0.000000 0.000000
										CHANNELS 3 Xrotation Yrotation Zrotation
										JOINT rightLittleDistal
										{
											OFFSET -2.099998 0.000000 0.000000
											CHANNELS 3 Xrotation Yrotation Zrotation
											JOINT rightHandPinky4
											{
												OFFSET -2.115791 0.000000 0.000000
												CHANNELS 3 Xrotation Yrotation Zrotation
												End Site
												{
													OFFSET -2.115799 0.000000 0.000174
												}
											}
										}
									}
								}
							}
						}
					}
				}
				JOINT leftShoulder
				{
					OFFSET 4.570400 11.014679 -2.160816
					CHANNELS 6 Xposition Yposition Zposition Xrotation Yrotation Zrotation
					JOINT leftUpperArm
					{
						OFFSET 10.592373 -0.524597 -2.232116
						CHANNELS 3 Xrotation Yrotation Zrotation
						JOINT leftLowerArm
						{
							OFFSET 27.841488 0.000000 0.000001
							CHANNELS 3 Xrotation Yrotation Zrotation
							JOINT leftHand
							{
								OFFSET 28.328808 0.000000 -0.000000
								CHANNELS 3 Xrotation Yrotation Zrotation
								JOINT leftThumbProximal
								{
									OFFSET 2.466103 -1.576202 2.681698
									CHANNELS 6 Xposition Yposition Zposition Xrotation Yrotation Zrotation
									JOINT leftThumbIntermediate
									{
										OFFSET 3.243317 -1.872528 1.872530
										CHANNELS 3 Xrotation Yrotation Zrotation
										JOINT leftThumbDistal
										{
											OFFSET 2.647881 -1.528763 1.528754
											CHANNELS 6 Xposition Yposition Zposition Xrotation Yrotation Zrotation
											JOINT leftHandThumb4
											{
												OFFSET 1.998924 -1.154083 1.154080
												CHANNELS 6 Xposition Yposition Zposition Xrotation Yrotation Zrotation
												End Site
												{
													OFFSET 1.884041 -1.149155 1.337651
												}
											}
										}
									}
								}
								JOINT leftIndexProximal
								{
									OFFSET 9.109299 -0.518005 2.259900
									CHANNELS 6 Xposition Yposition Zposition Xrotation Yrotation Zrotation
									JOINT leftIndexIntermediate
									{
										OFFSET 3.699997 0.000000 0.000000
										CHANNELS 3 Xrotation Yrotation Zrotation
										JOINT leftIndexDistal
										{
											OFFSET 2.850006 0.000000 0.000000
											CHANNELS 3 Xrotation Yrotation Zrotation
											JOINT leftHandIndex4
											{
												OFFSET 2.774895 0.000000 0.000000
												CHANNELS 3 Xrotation Yrotation Zrotation
												End Site
												{
													OFFSET 2.774902 0.000000 -0.000072
												}
											}
										}
									}
								}
								JOINT leftMiddleProximal
								{
									OFFSET 9.533401 0.000000 0.000000
									CHANNELS 6 Xposition Yposition Zposition Xrotation Yrotation Zrotation
									JOINT leftMiddleIntermediate
									{
										OFFSET 3.699997 0.000000 0.000000
										CHANNELS 3 Xrotation Yrotation Zrotation
										JOINT leftMiddleDistal
										{
											OFFSET 2.949997 0.000000 0.000000
											CHANNELS 3 Xrotation Yrotation Zrotation
											JOINT leftHandMiddle4
											{
												OFFSET 2.952896 0.000000 0.000000
												CHANNELS 3 Xrotation Yrotation Zrotation
												End Site
												{
													OFFSET 2.952904 0.000000 0.000165
												}
											}
										}
									}
								}
								JOINT leftRingProximal
								{
									OFFSET 9.104500 -0.042999 -1.865101
									CHANNELS 6 Xposition Yposition Zposition Xrotation Yrotation Zrotation
									JOINT leftRingIntermediate
									{
										OFFSET 3.149994 0.000000 0.000000
										CHANNELS 3 Xrotation Yrotation Zrotation
										JOINT leftRingDistal
										{
											OFFSET 2.950005 0.000000 0.000000
											CHANNELS 3 Xrotation Yrotation Zrotation
											JOINT leftHandRing4
											{
												OFFSET 2.644302 0.000000 0.000000
												CHANNELS 3 Xrotation Yrotation Zrotation
												End Site
												{
													OFFSET 2.644302 0.000000 0.000083
												}
											}
										}
									}
								}
								JOINT leftLittleProximal
								{
									OFFSET 8.077805 -0.486893 -3.806302
									CHANNELS 6 Xposition Yposition Zposition Xrotation Yrotation Zrotation
									JOINT leftLittleIntermediate
									{
										OFFSET 3.600006 0.000000 0.000000
										CHANNELS 3 Xrotation Yrotation Zrotation
										JOINT leftLittleDistal
										{
											OFFSET 2.099998 0.000000 0.000000
											CHANNELS 3 Xrotation Yrotation Zrotation
											JOINT leftHandPinky4
											{
												OFFSET 2.125496 0.000000 0.000000
												CHANNELS 3 Xrotation Yrotation Zrotation
												End Site
												{
													OFFSET 2.125504 0.000000 -0.001254
												}
											}
										}
									}
								}
							}
						}
					}
				}
			}
		}
	}
	JOINT rightUpperLeg
	{
		OFFSET -8.207800 -6.751701 -1.599544
		CHANNELS 6 Xposition Yposition Zposition Xrotation Yrotation Zrotation
		JOINT rightLowerLeg
		{
			OFFSET 0.000004 -44.370152 0.345934
			CHANNELS 3 Xrotation Yrotation Zrotation
			JOINT rightFoot
			{
				OFFSET 0.000004 -44.423664 -3.043535
				CHANNELS 3 Xrotation Yrotation Zrotation
				JOINT rightToes
				{
					OFFSET 0.000001 -8.728691 10.710592
					CHANNELS 3 Xrotation Yrotation Zrotation
					JOINT rightToesEnd
					{
						OFFSET 0.000000 -0.000665 9.278101
						CHANNELS 3 Xrotation Yrotation Zrotation
						End Site
						{
							OFFSET 0.000000 -0.000665 9.278103
						}
					}
				}
			}
		}
	}
	JOINT leftUpperLeg
	{
		OFFSET 8.207800 -6.751701 -1.599544
		CHANNELS 6 Xposition Yposition Zposition Xrotation Yrotation Zrotation
		JOINT leftLowerLeg
		{
			OFFSET 0.000004 -44.370037 0.346940
			CHANNELS 3 Xrotation Yrotation Zrotation
			JOINT leftFoot
			{
				OFFSET 0.000004 -44.423611 -3.044388
				CHANNELS 3 Xrotation Yrotation Zrotation
				JOINT leftToes
				{
					OFFSET 0.000001 -8.728690 10.710592
					CHANNELS 3 Xrotation Yrotation Zrotation
					JOINT leftToesEnd
					{
						OFFSET 0.000000 -0.000680 9.278101
						CHANNELS 3 Xrotation Yrotation Zrotation
						End Site
						{
							OFFSET 0.000000 -0.000680 9.278101
						}
					}
				}
			}
		}
	}
}
MOTION
Frames: 4
Frame Time: 0.033333
0.478564 101.630859 1.555263 -0.893322 1.577731 -5.359105 -0.000000 10.181546 0.131523 1.298039 -1.197536 3.016797 0.728743 0.264196 5.943208 0.710789 0.781492 5.852000 0.000001 16.740349 -2.049017 1.045306 -0.304693 -2.163990 0.000003 9.617837 1.684976 1.584930 0.546142 -8.140513 -0.000000 22.037354 7.501072 -0.000000 -0.000000 -0.000000 -4.570000 11.014854 -2.160839 4.508119 3.324383 5.471650 -1.219696 0.655830 67.345440 -0.000011 17.736791 0.000023 -11.193110 -9.123288 10.139318 -2.464787 -1.574003 2.681909 18.491294 0.461454 -10.916089 1.284033 -32.757632 3.089014 -2.646269 -1.527812 1.527820 2.008732 -8.430457 1.114724 -1.994601 -1.151584 1.151579 -0.000000 -0.000003 -0.000002 -9.108279 -0.517875 2.259804 0.339057 -4.671421 7.844231 0.387033 -2.823572 20.566217 -0.193131 -0.216346 13.843952 -0.000000 -0.000000 -0.000001 -9.532480 -0.000002 0.000001 0.912587 -8.769263 15.831742 0.919063 -3.991124 33.400431 0.216476 -1.688835 15.898064 -0.000001 -0.000001 -0.000002 -9.103583 -0.043100 -1.865101 2.555821 -11.673028 26.909199 1.710643 -3.886773 40.215454 -0.157959 0.035280 17.815341 0.000001 -0.000000 -0.000000 -8.076671 -0.486727 -3.806297 5.576073 -16.029168 36.940624 1.378681 -4.077635 45.645649 -0.727744 -0.247550 22.122730 -0.000001 -0.000000 0.000001 4.570402 11.014676 -2.160811 3.582353 -13.764042 -5.044487 4.032786 3.514270 -83.678348 0.000020 -14.506750 0.000022 -27.592627 3.698770 -9.416211 2.466101 -1.576209 2.681696 18.491378 -0.461337 10.916074 1.284027 32.757621 -3.089013 2.647883 -1.528751 1.528754 2.117139 9.311161 -0.358634 1.998917 -1.154075 1.154082 -0.000002 0.000003 -0.000000 9.109296 -0.518007 2.259901 0.339182 4.671417 -7.844220 0.387005 2.823614 -20.566203 0.034616 0.816849 -10.169806 -0.000000 0.000001 0.000001 9.533399 -0.000001 0.000002 0.912561 8.769292 -15.831721 0.919039 3.991198 -33.400414 0.170562 1.488904 -12.264416 -0.000001 -0.000001 0.000001 9.104491 -0.043008 -1.865102 2.555778 11.673072 -26.909140 1.710616 3.886862 -40.215474 0.544834 1.835106 -19.344142 -0.000001 0.000000 0.000000 8.077791 -0.486889 -3.806304 5.576033 16.029235 -36.940600 1.378646 4.077728 -45.645611 0.486566 2.853421 -20.524729 0.000001 0.000001 -0.000001 -8.207800 -6.751715 -1.599545 -1.603344 -4.967221 10.554078 12.444909 -5.083553 3.268286 -9.845333 1.006296 -7.756626 -0.548662 -0.000001 0.000001 0.000000 0.000000 0.000000 8.207800 -6.751710 -1.599546 -19.556223 10.812977 15.936479 22.045013 9.498143 2.339185 -1.490766 3.351116 -8.781933 -0.441968 0.000008 -0.000001 0.000000 -0.000000 0.000000 
0.508424 101.626984 1.503468 -0.929996 1.601725 -5.359016 -0.000002 10.181562 0.131523 1.569894 -1.084097 2.980038 0.806514 0.297223 5.937787 0.757035 0.811288 5.842641 -0.000001 16.740368 -2.049018 0.674572 -0.275588 -2.181442 -0.000003 9.617867 1.684973 1.546233 0.612524 -8.207844 -0.000000 22.037354 7.501076 -0.000001 -0.000000 0.000000 -4.570000 11.014874 -2.160840 4.471842 3.393686 5.566006 -1.574194 0.965574 67.228951 -0.000010 18.410736 0.000047 -11.501793 -8.817970 9.874887 -2.464780 -1.573995 2.681906 17.834893 0.254527 -10.971500 1.458397 -32.449867 2.815990 -2.646262 -1.527815 1.527820 1.959610 -8.117454 1.272969 -1.994598 -1.151583 1.151577 0.000001 -0.000006 -0.000000 -9.108294 -0.517875 2.259804 0.338285 -4.685091 7.751630 0.374225 -2.789146 20.202077 -0.194591 -0.170834 13.408284 -0.000000 0.000000 -0.000000 -9.532489 0.000001 0.000000 0.875549 -8.669353 15.531338 0.882404 -3.932449 32.706501 0.205269 -1.649218 15.486566 0.000001 -0.000000 0.000002 -9.103592 -0.043110 -1.865103 2.459238 -11.547693 26.408505 1.637647 -3.814755 39.186906 -0.162294 0.086194 17.318083 0.000000 0.000000 0.000000 -8.076679 -0.486725 -3.806295 5.091353 -16.171233 32.933045 1.299896 -3.984518 44.431019 -0.724602 -0.174836 21.480588 0.000001 0.000000 0.000000 4.570400 11.014686 -2.160812 3.576225 -13.829537 -4.994126 3.666574 3.616183 -83.596113 0.000015 -15.191626 0.000016 -27.721972 3.463225 -9.117195 2.466084 -1.576216 2.681699 18.084632 -0.405964 11.113109 1.158067 32.751812 -2.903864 2.647880 -1.528732 1.528750 1.833085 9.018329 -0.532510 1.998932 -1.154078 1.154082 0.000002 -0.000002 -0.000000 9.109292 -0.518011 2.259901 0.338510 4.681877 -7.773450 0.377188 2.797306 -20.287895 0.029970 0.783381 -9.836647 0.000001 -0.000000 -0.000004 9.533401 0.000000 0.000000 0.884166 8.692970 -15.602006 0.890939 3.946388 -32.870104 0.163076 1.458389 -11.949944 -0.000000 -0.000001 -0.000001 9.104485 -0.042992 -1.865099 2.481768 11.577388 -26.526392 1.654704 3.831919 -39.429265 0.529036 1.800815 -18.963409 -0.000002 -0.000001 -0.000000 8.077793 -0.486891 -3.806304 5.371963 15.865490 -36.335507 1.321627 4.010734 -44.769738 0.466451 2.808164 -20.032270 0.000001 0.000001 0.000001 -8.207799 -6.751725 -1.599544 -1.658533 -4.961212 10.555680 12.555436 -5.136657 3.228725 -9.869388 1.004948 -7.713655 -0.521031 0.000003 0.000000 0.000000 -0.000000 0.000000 8.207800 -6.751697 -1.599544 -19.572547 10.785728 15.900113 22.095081 9.516031 2.367347 -1.496029 3.351574 -8.766750 -0.456186 0.000008 -0.000000 -0.000000 0.000001 0.000000 
0.565891 101.608971 1.428811 -0.994565 1.666468 -5.377828 0.000001 10.181550 0.131523 1.967761 -0.924094 2.946340 0.977273 0.348480 5.927360 0.835965 0.852112 5.829803 -0.000002 16.740391 -2.049020 -0.252383 -0.193675 -2.215532 0.000000 9.617854 1.684974 1.272308 0.704984 -8.320696 0.000000 22.037354 7.501073 -0.000000 -0.000000 -0.000000 -4.570000 11.014885 -2.160840 4.373738 3.553563 5.903660 -2.126916 1.867426 66.866056 -0.000004 19.712305 0.000028 -12.027100 -8.055575 9.284221 -2.464786 -1.573992 2.681907 16.155112 -0.255290 -11.121036 1.894033 -31.656202 2.115655 -2.646263 -1.527813 1.527814 1.832641 -7.319209 1.675841 -1.994609 -1.151583 1.151580 0.000001 -0.000002 0.000001 -9.108290 -0.517874 2.259804 0.327460 -4.719838 7.522829 0.343649 -2.704079 19.306173 -0.196750 -0.058810 12.336321 -0.000000 0.000000 0.000001 -9.532488 0.000013 -0.000001 0.788421 -8.422320 14.793083 0.795189 -3.786192 30.999104 0.178948 -1.551434 14.474132 -0.000001 -0.000000 0.000002 -9.103581 -0.043098 -1.865102 2.230052 -11.234054 25.179158 1.463696 -3.632055 36.656485 -0.171104 0.211644 16.094478 0.000000 -0.000000 0.000000 -8.076682 -0.486732 -3.806297 3.875965 -16.369558 23.822392 1.115605 -3.749793 41.459808 -0.713420 0.003904 19.900497 -0.000001 0.000000 0.000000 4.570395 11.014683 -2.160814 3.550407 -13.951133 -4.933636 3.012840 3.659839 -83.344748 0.000007 -16.510432 -0.000005 -27.921619 3.017648 -8.529492 2.466094 -1.576217 2.681692 16.939998 -0.263092 11.662253 0.805260 32.733115 -2.386071 2.647891 -1.528734 1.528748 1.090889 8.222557 -1.045275 1.998913 -1.154089 1.154071 -0.000001 -0.000001 0.000001 9.109288 -0.518017 2.259900 0.329534 4.711067 -7.581135 0.351274 2.725876 -19.534807 0.018365 0.692680 -8.935201 0.000000 0.000003 -0.000006 9.533401 -0.000001 0.000000 0.810115 8.485567 -14.981347 0.816985 3.823830 -31.434884 0.143675 1.375626 -11.099066 0.000001 -0.000001 0.000002 9.104504 -0.042995 -1.865103 2.287346 11.314799 -25.492600 1.507284 3.679480 -37.302159 0.487426 1.707493 -17.933275 -0.000001 0.000000 0.000000 8.077789 -0.486895 -3.806299 4.838121 15.407708 -34.704188 1.172593 3.825221 -42.400435 0.414000 2.684843 -18.699967 -0.000000 -0.000001 -0.000001 -8.207797 -6.751708 -1.599544 -1.772921 -4.946826 10.574997 12.811651 -5.246758 3.156061 -9.956547 0.999083 -7.625834 -0.500293 0.000001 -0.000002 -0.000000 0.000000 0.000000 8.207797 -6.751698 -1.599545 -19.630790 10.730267 15.860483 22.249029 9.510168 2.414829 -1.556040 3.352081 -8.738805 -0.461000 0.000014 -0.000003 -0.000000 0.000002 0.000000 
0.660140 101.579872 1.320712 -1.093643 1.761783 -5.422986 -0.000001 10.181556 0.131524 2.607025 -0.744007 2.918356 1.259305 0.409136 5.911248 0.969658 0.897326 5.813923 0.000001 16.740372 -2.049020 -1.631595 -0.062878 -2.268882 -0.000004 9.617859 1.684975 0.677289 0.862458 -8.451160 0.000000 22.037369 7.501072 -0.000000 -0.000000 0.000000 -4.569999 11.014874 -2.160842 4.219982 3.793098 6.451069 -2.834657 3.277998 66.299458 0.000001 21.597150 0.000000 -12.715912 -6.881066 8.403230 -2.464795 -1.573998 2.681906 13.871095 -0.903412 -11.340388 2.463487 -30.563187 1.160804 -2.646278 -1.527811 1.527817 1.657135 -6.240267 2.218781 -1.994590 -1.151596 1.151587 -0.000001 -0.000004 -0.000004 -9.108294 -0.517877 2.259805 0.313174 -4.763954 7.231307 0.306616 -2.595053 18.165102 -0.196448 0.083906 10.970856 -0.000001 0.000000 0.000007 -9.532519 0.000015 0.000002 0.685723 -8.105454 13.854236 0.690492 -3.596247 28.824956 0.147932 -1.426235 13.184639 0.000000 -0.000000 0.000001 -9.103610 -0.043097 -1.865100 1.955876 -10.824409 23.618222 1.254111 -3.388509 33.434500 -0.178434 0.371638 14.535896 -0.000000 0.000000 -0.000001 -8.076694 -0.486729 -3.806298 2.407363 -16.289238 13.915451 0.900989 -3.440594 37.713648 -0.692031 0.231015 17.887774 0.000000 0.000000 -0.000000 4.570399 11.014695 -2.160815 3.506833 -14.124429 -4.865575 2.113710 3.641938 -82.944888 0.000011 -18.417701 -0.000003 -28.157977 2.366762 -7.687666 2.466080 -1.576202 2.681695 15.157281 -0.077574 12.501579 0.258990 32.694087 -1.588314 2.647880 -1.528749 1.528757 0.050959 6.887158 -1.220803 1.998905 -1.154078 1.154077 0.000003 -0.000000 0.000002 9.109283 -0.518012 2.259903 0.315820 4.754030 -7.297451 0.314816 2.619910 -18.424188 0.003841 0.558587 -7.605614 0.000000 0.000002 -0.000002 9.533402 0.000002 0.000000 0.708224 8.177670 -14.067230 0.713606 3.639780 -29.318614 0.117307 1.253036 -9.844161 -0.000001 -0.000000 0.000002 9.104496 -0.043002 -1.865097 2.016351 10.918358 -23.972294 1.300431 3.444892 -34.165819 0.429160 1.568543 -16.414080 -0.000001 0.000000 0.000000 8.077794 -0.486894 -3.806301 4.100574 14.695242 -32.313990 0.967152 3.540746 -38.907599 0.341920 2.500800 -16.735270 -0.000000 0.000000 -0.000000 -8.207804 -6.751715 -1.599544 -1.940615 -4.911182 10.627656 13.192413 -5.414114 3.025700 -10.085231 0.993146 -7.477474 -0.493232 0.000002 0.000000 -0.000000 0.000000 0.000000 8.207799 -6.751697 -1.599546 -19.725091 10.645876 15.814693 22.496715 9.486126 2.490442 -1.655109 3.364962 -8.708430 -0.456478 0.000020 0.000003 -0.000000 -0.000000 0.000000 
